<svg xmlns="http://www.w3.org/2000/svg" id="Capa_1" data-name="Capa 1" viewBox="0 0 512 512">
<defs><style>.cls-1{fill:#1fb893}.cls-1,.cls-2{stroke-width:0px}.cls-2{fill:#fff}</style></defs>
<circle class="cls-1" cx="256" cy="256" r="256"></circle>
<g>
<path class="cls-2" d="M362.95,196.5c-2.05-2.86-3.7-6-4.87-9.32-.68-3.61-.85-7.3-.5-10.96.85-6.38-.12-12.87-2.81-18.72-3.75-5.3-8.94-9.42-14.95-11.88-3.29-1.49-6.36-3.44-9.1-5.8-2.35-2.74-4.3-5.81-5.8-9.1-2.46-6.01-6.58-11.2-11.88-14.96-5.84-2.69-12.33-3.66-18.71-2.81-3.66.35-7.35.18-10.96-.5-3.32-1.18-6.46-2.82-9.32-4.87-5.21-4.04-11.47-6.49-18.03-7.08-6.57.58-12.83,3.04-18.04,7.08-2.86,2.05-6,3.69-9.32,4.87-3.61.68-7.3.85-10.96.5-6.38-.85-12.87.12-18.72,2.81-5.3,3.75-9.42,8.94-11.88,14.95-1.49,3.29-3.44,6.36-5.8,9.1-2.74,2.35-5.81,4.3-9.1,5.8-6.01,2.46-11.2,6.58-14.96,11.88-2.69,5.84-3.66,12.33-2.81,18.71.35,3.66.18,7.35-.5,10.96-1.18,3.32-2.82,6.46-4.87,9.32-4.04,5.21-6.49,11.47-7.08,18.03.58,6.57,3.04,12.83,7.08,18.04,2.05,2.86,3.7,6,4.87,9.32.68,3.61.85,7.3.5,10.96-.85,6.38.12,12.87,2.81,18.72,3.75,5.3,8.94,9.42,14.95,11.88,3.29,1.49,6.36,3.44,9.1,5.8,2.35,2.74,4.3,5.81,5.8,9.1,1.46,2.96,3.15,5.8,5.03,8.51l-29.1,79.95c-.98,2.69.41,5.66,3.1,6.64,1.11.4,2.32.42,3.43.04l27.51-9.29,15.1,24.81c.94,1.55,2.62,2.49,4.43,2.49.17,0,.34-.01.51-.03,1.98-.2,3.68-1.51,4.36-3.39l29.21-80.25c3.48.98,7.17.98,10.65,0l29.21,80.25c.68,1.87,2.37,3.19,4.36,3.39.17.02.34.03.51.03,1.81,0,3.49-.94,4.43-2.49l15.1-24.81,27.51,9.29c2.71.92,5.65-.54,6.57-3.25.38-1.11.36-2.32-.04-3.43l-29.1-79.96c1.89-2.71,3.57-5.55,5.03-8.5,1.49-3.29,3.44-6.36,5.8-9.1,2.74-2.35,5.81-4.3,9.1-5.8,6.01-2.46,11.2-6.58,14.96-11.88,2.69-5.84,3.66-12.33,2.81-18.71-.35-3.66-.18-7.35.5-10.96,1.18-3.32,2.82-6.46,4.87-9.32,4.04-5.21,6.49-11.47,7.08-18.03-.58-6.56-3.04-12.82-7.08-18.03ZM215.41,394.39l-11.65-19.14c-1.26-2.07-3.79-2.99-6.09-2.21l-21.22,7.17,24.08-66.15c5.48,2.01,11.36,2.71,17.16,2.05,3.66-.35,7.35-.18,10.96.5,3.32,1.18,6.46,2.82,9.32,4.87,1.05.67,2.14,1.35,3.25,2.02l-25.81,70.89ZM314.33,373.05c-2.3-.78-4.83.14-6.09,2.21l-11.65,19.14-25.8-70.89c1.11-.67,2.2-1.35,3.25-2.02,2.86-2.05,6-3.7,9.32-4.87,3.61-.68,7.3-.85,10.96-.5,5.8.67,11.68-.03,17.16-2.05l24.08,66.16-21.22-7.17ZM354.2,227c-2.65,3.74-4.72,7.85-6.14,12.21-.99,4.62-1.28,9.35-.85,14.06.65,4.42.17,8.93-1.42,13.1-2.85,3.51-6.56,6.23-10.78,7.89-4.24,1.95-8.17,4.53-11.64,7.65-3.13,3.47-5.71,7.39-7.66,11.64-1.66,4.21-4.37,7.92-7.89,10.78-4.18,1.58-8.69,2.07-13.1,1.42-4.7-.42-9.44-.14-14.06.85-4.36,1.42-8.47,3.49-12.21,6.14-3.61,2.88-7.9,4.76-12.47,5.46-4.56-.69-8.86-2.58-12.47-5.46-3.74-2.65-7.85-4.72-12.21-6.14-2.91-.72-5.9-1.05-8.89-.98-1.73,0-3.46.07-5.16.14-4.42.65-8.93.16-13.1-1.42-3.51-2.85-6.23-6.56-7.89-10.78-1.95-4.25-4.53-8.17-7.65-11.64-3.47-3.13-7.39-5.71-11.64-7.66-4.21-1.66-7.92-4.37-10.78-7.89-1.59-4.17-2.08-8.69-1.42-13.1.43-4.7.14-9.44-.85-14.06-1.42-4.36-3.49-8.47-6.14-12.21-2.88-3.61-4.76-7.9-5.46-12.47.69-4.56,2.58-8.86,5.46-12.47,2.65-3.74,4.72-7.85,6.14-12.21.99-4.62,1.28-9.35.85-14.06-.65-4.42-.17-8.93,1.42-13.1,2.85-3.51,6.56-6.23,10.78-7.89,4.24-1.95,8.17-4.53,11.64-7.65,3.13-3.47,5.71-7.39,7.66-11.64,1.66-4.21,4.37-7.92,7.89-10.78,4.17-1.59,8.69-2.08,13.1-1.42,4.7.42,9.44.14,14.06-.85,4.36-1.42,8.47-3.49,12.21-6.14,3.61-2.88,7.9-4.76,12.47-5.46,4.56.69,8.86,2.58,12.47,5.46,3.74,2.65,7.85,4.72,12.21,6.14,4.62.99,9.35,1.27,14.06.85,4.42-.65,8.93-.16,13.1,1.42,3.51,2.85,6.23,6.56,7.89,10.78,1.95,4.24,4.53,8.17,7.65,11.64,3.47,3.13,7.39,5.71,11.64,7.66,4.21,1.66,7.92,4.37,10.78,7.89,1.59,4.17,2.08,8.69,1.42,13.1-.43,4.7-.14,9.44.85,14.06,1.42,4.36,3.49,8.47,6.14,12.21,2.88,3.61,4.76,7.9,5.46,12.47-.69,4.56-2.58,8.86-5.46,12.47Z"></path>
<path class="cls-2" d="M256,131.61c-45.8,0-82.92,37.13-82.92,82.92s37.13,82.92,82.92,82.92,82.92-37.13,82.92-82.92c-.05-45.78-37.15-82.87-82.92-82.92ZM256,287.1c-40.07,0-72.56-32.49-72.56-72.56s32.49-72.56,72.56-72.56,72.56,32.49,72.56,72.56c-.05,40.05-32.5,72.51-72.56,72.56Z"></path>
<path class="cls-2" d="M274.6,188.68l-13.95-28.26c-1.51-2.57-4.81-3.42-7.38-1.91-.79.46-1.45,1.12-1.91,1.91l-13.95,28.26-31.19,4.53c-2.83.41-4.79,3.04-4.38,5.87.16,1.13.69,2.17,1.51,2.96l22.57,22-5.33,31.07c-.48,2.82,1.41,5.5,4.23,5.98,1.12.19,2.28,0,3.29-.52l27.9-14.67,27.9,14.67c2.53,1.33,5.67.36,7-2.17.53-1.01.71-2.16.52-3.29l-5.33-31.07,22.57-22c2.05-2,2.09-5.28.09-7.33-.8-.81-1.84-1.34-2.96-1.51l-31.19-4.53ZM276.9,218.53c-1.22,1.19-1.78,2.91-1.49,4.59l4.01,23.4-21.01-11.05c-1.51-.8-3.32-.8-4.83,0l-21.01,11.05,4.01-23.4c.29-1.68-.27-3.39-1.49-4.59l-17.01-16.58,23.5-3.42c1.69-.24,3.15-1.3,3.9-2.83l10.5-21.29,10.51,21.29c.75,1.53,2.21,2.59,3.9,2.83l23.5,3.42-17.01,16.58Z"></path>
</g>
</svg>
