<svg xmlns="http://www.w3.org/2000/svg" id="Capa_1" data-name="Capa 1" viewBox="0 0 512 512">
<defs><style>.cls-1{fill:#1fb893}.cls-1,.cls-2{stroke-width:0px}.cls-2{fill:#fff}</style></defs>
<circle class="cls-1" cx="256" cy="256" r="256"></circle>
<g>
<path class="cls-2" d="M327.85,266.41h-47.37l13.43-39.16c1.04-3.13,1.04-6.41-.07-9.32-.9-2.31-2.31-4.25-4.18-5.74-2.98-2.31-6.79-3.36-10.52-2.69-3.58.6-6.79,2.61-8.88,5.67l-37,44.38c-1.04,1.27-2.31,2.39-3.58,3.36-1.57-3.8-5.37-6.56-9.7-6.56h-40.95c-5.97,0-10.74,4.85-10.74,10.74v135.23c0,5.97,4.85,10.74,10.74,10.74h25.44c11.26,0,20.89-7.24,24.54-17.31.37,0,.75.07,1.12.07h73.92c6.94,0,13.2-4.7,15.22-11.34l23.79-80.19c.52-1.72.75-3.51.75-5.37v-16.71c-.07-8.65-7.24-15.81-15.96-15.81ZM204.4,402.38h-25.44q-.07,0-.07-.07v-135.16q0-.07.07-.07h40.8v120.02c-.07,8.43-6.94,15.29-15.37,15.29ZM332.99,299c0,.75-.07,1.57-.3,2.31l-23.79,80.19c-.67,2.16-2.69,3.73-4.92,3.73h-73.47v-110.54c4.25-1.86,8.06-4.62,11.04-8.28,0,0,37.44-44.9,37.52-45.13,1.19-2.24,5.97-2.76,4.77,2.54l-14.47,41.92c-.9,2.61-.45,5.52,1.12,7.76,1.64,2.24,4.25,3.58,7.01,3.58h50.35c2.83,0,5.15,2.31,5.15,5.15v16.78Z"></path>
<path class="cls-2" d="M283.99,197.19c-1.19,0-2.31-.37-3.36-1.04l-24.69-16.71-24.69,16.78c-2.09,1.42-4.77,1.34-6.79-.07-2.01-1.49-2.91-4.03-2.24-6.41l8.28-28.79-23.57-18.35c-1.94-1.57-2.76-4.18-2.01-6.49.75-2.39,2.98-4.03,5.45-4.1l29.84-.97,10.14-28.12c.82-2.31,3.06-3.95,5.59-3.95s4.7,1.57,5.59,3.95l10.14,28.12,29.84.97c2.46.07,4.7,1.72,5.45,4.1s0,5-2.01,6.49l-23.57,18.35,8.35,28.72c.67,2.39-.22,5-2.24,6.41-1.04.75-2.31,1.12-3.51,1.12ZM232.52,192.64h0c-.07,0,0,0,0,0ZM255.94,167.72c1.19,0,2.31.37,3.36,1.04l16.41,11.19-5.52-19.1c-.67-2.31.15-4.85,2.09-6.34l15.66-12.16-19.84-.67c-2.46-.07-4.55-1.64-5.37-3.88l-6.71-18.72-6.71,18.72c-.82,2.31-2.98,3.8-5.37,3.88l-19.99.6,15.66,12.16c1.94,1.49,2.76,3.95,2.09,6.34l-5.52,19.1,16.41-11.19c1.04-.67,2.16-.97,3.36-.97ZM253.26,177.57h0ZM280.48,157.8h0ZM301.14,142.73h0ZM243.48,130.95h0ZM268.4,130.95h0ZM251.47,106.56h0ZM384.83,228.51c-1.04,0-2.09-.3-2.98-.9l-19.47-13.2-19.47,13.2c-1.86,1.27-4.33,1.19-6.12-.07-1.79-1.34-2.61-3.65-2.01-5.82l6.56-22.6-18.57-14.47c-1.79-1.42-2.54-3.73-1.79-5.89.67-2.16,2.69-3.65,4.92-3.73l23.57-.75,7.98-22.15c.75-2.09,2.76-3.51,5.07-3.51s4.25,1.42,5.07,3.51l7.98,22.15,23.57.75c2.24.07,4.25,1.57,4.92,3.73s0,4.48-1.79,5.89l-18.57,14.47,6.56,22.6c.6,2.16-.15,4.48-2.01,5.82-1.19.67-2.31.97-3.43.97ZM362.38,202.56c1.04,0,2.09.3,2.98.9l10.22,6.94-3.43-11.86c-.6-2.09.15-4.4,1.86-5.74l9.77-7.61-12.31-.37c-2.16-.07-4.1-1.49-4.85-3.51l-4.18-11.64-4.18,11.64c-.75,2.09-2.69,3.43-4.85,3.51l-12.31.37,9.77,7.61c1.72,1.34,2.46,3.58,1.86,5.74l-3.43,11.86,10.22-6.94c.67-.6,1.72-.9,2.83-.9ZM430.41,317.43c-1.04,0-2.09-.3-2.98-.9l-14.99-10.14-14.99,10.14c-1.86,1.27-4.33,1.19-6.12-.07-1.79-1.34-2.61-3.65-2.01-5.82l5.07-17.38-14.32-11.11c-1.79-1.42-2.54-3.73-1.79-5.89.67-2.16,2.69-3.65,4.92-3.73l18.13-.6,6.12-17.01c.75-2.09,2.76-3.51,5.07-3.51s4.25,1.42,5.07,3.51l6.12,17.01,18.13.6c2.24.07,4.25,1.57,4.92,3.73s0,4.48-1.79,5.89l-14.47,11.04,5.07,17.38c.6,2.16-.15,4.48-2.01,5.82-.9.75-2.01,1.04-3.13,1.04ZM412.43,294.53c1.04,0,2.09.3,2.98.9l5.74,3.88-1.94-6.64c-.6-2.09.15-4.4,1.86-5.74l5.45-4.25-6.94-.22c-2.16-.07-4.1-1.49-4.85-3.51l-2.31-6.49-2.31,6.49c-.75,2.09-2.69,3.43-4.85,3.51l-6.94.22,5.45,4.25c1.72,1.34,2.46,3.58,1.86,5.74l-1.94,6.64,5.74-3.88c.9-.6,1.94-.9,2.98-.9ZM172.03,228.51c-1.04,0-2.09-.3-2.98-.9l-19.47-13.2-19.47,13.2c-1.86,1.27-4.33,1.19-6.12-.07-1.79-1.34-2.61-3.65-2.01-5.82l6.56-22.6-18.57-14.47c-1.79-1.42-2.54-3.73-1.79-5.89.67-2.16,2.69-3.65,4.92-3.73l23.57-.75,7.98-22.15c.75-2.09,2.76-3.51,5.07-3.51s4.25,1.42,5.07,3.51l7.98,22.15,23.57.75c2.24.07,4.25,1.57,4.92,3.73.67,2.16,0,4.48-1.79,5.89l-18.57,14.47,6.56,22.6c.6,2.16-.15,4.48-2.01,5.82-1.19.67-2.31.97-3.43.97ZM128.17,185.25l9.77,7.61c1.72,1.34,2.46,3.58,1.86,5.74l-3.43,11.86,10.22-6.94c1.79-1.27,4.18-1.27,6.04,0l10.22,6.94-3.43-11.86c-.6-2.09.15-4.4,1.86-5.74l9.77-7.61-12.31-.37c-2.16-.07-4.1-1.49-4.85-3.51l-4.18-11.64-4.18,11.64c-.75,2.09-2.69,3.43-4.85,3.51l-12.53.37ZM117.43,317.43c-1.04,0-2.09-.3-2.98-.9l-14.99-10.14-14.99,10.14c-1.86,1.27-4.33,1.19-6.12-.07-1.79-1.34-2.61-3.65-2.01-5.82l5.07-17.38-14.32-11.19c-1.79-1.42-2.54-3.73-1.79-5.89.67-2.16,2.69-3.65,4.92-3.73l18.13-.6,6.12-17.01c.75-2.09,2.76-3.51,5.07-3.51s4.25,1.42,5.07,3.51l6.12,17.01,18.13.6c2.24.07,4.25,1.57,4.92,3.73s0,4.48-1.79,5.89l-14.32,11.11,5.07,17.38c.6,2.16-.15,4.48-2.01,5.82-1.04.75-2.16,1.04-3.28,1.04ZM99.45,294.53c1.04,0,2.09.3,2.98.9l5.74,3.88-1.94-6.64c-.6-2.09.15-4.4,1.86-5.74l5.45-4.25-6.94-.22c-2.16-.07-4.1-1.49-4.85-3.51l-2.31-6.49-2.31,6.49c-.75,2.09-2.69,3.43-4.85,3.51l-6.94.22,5.45,4.25c1.72,1.34,2.46,3.58,1.86,5.74l-1.94,6.64,5.74-3.88c.9-.6,1.94-.9,2.98-.9Z"></path>
</g>
</svg>
