<svg id="Capa_1" data-name="Capa 1" xmlns="http://www.w3.org/2000/svg" viewBox="0 0 512 512">
<defs><style>.cls-1{fill:#1fb893}.cls-1,.cls-2{stroke-width:0px}.cls-2{fill:#fff}</style></defs>
<circle class="cls-1" cx="256" cy="256" r="256"></circle>
<path class="cls-2" d="M397.34,271.38l-45.17-18.82v-13.51c12.58-7.22,21.43-19.51,24.3-33.73h1.01c8.39.11,15.28-6.59,15.39-14.98s-6.59-15.28-14.98-15.39l4.96-11.5c8.82-20.44-.34-44.18-20.6-53.41l-14.13-6.43c-17.02-7.56-36.79-5.41-51.79,5.63l-7.88,5.94c-8.04,2.07-14.95,7.22-19.23,14.33-4.79,7.95-5.81,17.62-2.79,26.4-7.64-1.53-15.53-1.34-23.09.56,4.46-18.94-5.09-38.39-22.81-46.43l-14.13-6.43c-17.02-7.56-36.79-5.41-51.79,5.63l-7.88,5.94c-16.87,4.31-27.06,21.49-22.75,38.36.56,2.18,1.34,4.29,2.35,6.29l7.56,15.11c-8.39.17-15.04,7.11-14.87,15.5.17,8.39,7.11,15.04,15.5,14.87h1.01c2.88,14.21,11.73,26.49,24.3,33.72v13.53l-45.17,18.82c-9.44,3.91-15.59,13.14-15.58,23.36v67.49c0,2.8,2.27,5.06,5.06,5.06h35.43v40.49c0,2.8,2.27,5.06,5.06,5.06h222.72c2.8,0,5.06-2.27,5.06-5.06v-40.49h35.43c2.8,0,5.06-2.27,5.06-5.06v-67.49c.02-10.22-6.13-19.45-15.58-23.36ZM273.07,168.5l14.13,6.44c15.24,6.94,22.13,24.81,15.49,40.19l-1.52,3.47-5.19-10.48c-1.24-2.5-4.28-3.53-6.78-2.29-.29.14-.56.31-.81.5l-8.1,6.07c-14.4,10.8-34.2,10.8-48.59,0l-8.1-6.07c-1.2-.91-2.74-1.23-4.2-.88-1.46.34-2.7,1.32-3.37,2.66l-5.59,11.23-4.18-8.36c-5.29-10.57-1-23.43,9.58-28.72,2.97-1.48,6.24-2.26,9.56-2.26,7.92,0,15.32,3.95,19.71,10.54l1.59,2.39,8.42-5.62-1.59-2.38c-4.5-6.74-11.27-11.64-19.09-13.79,11.66-7.19,26.11-8.18,38.64-2.65ZM306.62,240.75h5.06c2.8,0,5.06,2.27,5.06,5.06s-2.27,5.06-5.06,5.06h-5.06v-10.12ZM240.81,299.16c9.88,3.11,20.49,3.11,30.37,0v10.36l-15.19,15.19-15.19-15.19v-10.36ZM256,291.37c-22.35-.03-40.47-18.14-40.49-40.49v-19.05l6.87-13.75,3.25,2.43c18,13.5,42.74,13.5,60.74,0l3.25-2.43,6.87,13.75v19.05c-.03,22.35-18.14,40.47-40.49,40.49ZM205.38,250.87h-5.06c-2.8,0-5.06-2.27-5.06-5.06s2.27-5.06,5.06-5.06h5.06v10.12ZM139.58,352.31v4.86h-30.37v-62.43c0-6.13,3.68-11.66,9.34-14.01l48.28-20.12c1.89-.79,3.12-2.64,3.11-4.69v-19.92c-.05-1.95-1.18-3.72-2.93-4.59-12.3-6.12-20.64-18.07-22.13-31.72-.28-2.56-2.45-4.51-5.03-4.5h-5.34c-2.8,0-5.06-2.27-5.06-5.06s2.27-5.06,5.06-5.06h5.06c2.8,0,5.06-2.27,5.06-5.06,0-.01,0-.02,0-.04l-.04-5.06c0-.77-.19-1.54-.53-2.23l-8.69-17.38c-5.28-10.58-.98-23.43,9.59-28.71,1.59-.8,3.28-1.39,5.02-1.77.72-.16,1.39-.47,1.98-.91l8.71-6.58c12.03-8.84,27.86-10.56,41.51-4.5l14.14,6.42c15.24,6.94,22.13,24.81,15.49,40.19l-.82,1.9c-1.92,1.06-3.77,2.26-5.53,3.57l-7.98,5.98h0c-16.84,4.33-26.99,21.49-22.66,38.33.56,2.17,1.34,4.27,2.35,6.27l7.57,15.12h-4.43c-8.39,0-15.19,6.8-15.19,15.19s6.8,15.19,15.19,15.19h6.07c2.93,14.17,11.77,26.41,24.3,33.65v13.13l-72.58,20.16c-10.94,3.06-18.51,13.02-18.54,24.38ZM362.3,402.73h-30.37v-40.49h-10.12v40.49h-131.61v-40.49h-10.12v40.49h-30.37v-50.42c.02-6.82,4.57-12.8,11.14-14.63l73.44-20.4,18.16,18.16c1.98,1.98,5.18,1.98,7.16,0l18.16-18.16,73.41,20.4c6.57,1.83,11.12,7.81,11.14,14.63v50.42ZM402.79,357.17h-30.37v-4.86c-.03-11.36-7.6-21.32-18.54-24.38l-72.58-20.16v-13.13c12.52-7.24,21.36-19.48,24.3-33.65h6.07c8.39,0,15.19-6.8,15.19-15.19s-6.8-15.19-15.19-15.19h-4.65l4.96-11.5c8.82-20.44-.34-44.18-20.6-53.41l-11.74-5.35-2.53-5.06c-5.28-10.57-.99-23.43,9.59-28.71,1.6-.8,3.28-1.39,5.03-1.77.72-.16,1.39-.47,1.98-.91l8.71-6.58c12.03-8.84,27.86-10.56,41.51-4.5l14.14,6.42c15.24,6.94,22.13,24.81,15.49,40.19l-5.82,13.47c-.28.64-.42,1.33-.42,2.02l.04,5.06c0,2.8,2.27,5.06,5.06,5.06h5.06c2.8,0,5.06,2.27,5.06,5.06s-2.27,5.06-5.06,5.06h-5.34c-2.58,0-4.75,1.94-5.03,4.5-1.5,13.71-9.9,25.69-22.27,31.78-1.72.85-2.81,2.61-2.81,4.53v19.92c0,2.04,1.23,3.89,3.11,4.67l48.3,20.13c5.66,2.35,9.35,7.88,9.34,14.01v62.43Z"></path>
</svg>
