<svg id="Capa_1" data-name="Capa 1" xmlns="http://www.w3.org/2000/svg" viewBox="0 0 512 512">
<defs><style>.cls-1{fill:#1fb893}.cls-1,.cls-2{stroke-width:0px}.cls-2{fill:#fff}</style></defs>
<circle class="cls-1" cx="256" cy="256" r="256"></circle>
<g>
<path class="cls-2" d="M317.19,401.46c-26.24,0-47.59-21.75-47.59-48.49s21.35-48.49,47.59-48.49h27.2c3.75,0,6.8,3.1,6.8,6.93s-3.05,6.93-6.8,6.93h-27.2c-18.74,0-33.99,15.53-33.99,34.63s15.26,34.63,33.99,34.63c3.75,0,6.8,3.1,6.8,6.93s-3.05,6.93-6.8,6.93Z"></path>
<path class="cls-2" d="M371.58,401.46h-27.2c-3.75,0-6.8-3.1-6.8-6.93s3.05-6.93,6.8-6.93h27.2c18.74,0,33.99-15.53,33.99-34.63s-15.26-34.63-33.99-34.63c-3.75,0-6.8-3.1-6.8-6.93s3.05-6.93,6.8-6.93c26.24,0,47.59,21.75,47.59,48.49s-21.35,48.49-47.59,48.49Z"></path>
<path class="cls-2" d="M323.99,339.12c-1.74,0-3.48-.68-4.81-2.02-2.65-2.7-2.65-7.09,0-9.79l15.6-15.89-15.58-15.88c-2.65-2.7-2.65-7.09,0-9.79,2.65-2.7,6.96-2.7,9.61,0l20.4,20.78c2.65,2.7,2.65,7.09,0,9.79l-20.4,20.78c-1.33,1.34-3.07,2.02-4.81,2.02Z"></path>
<path class="cls-2" d="M364.78,422.24c-1.74,0-3.48-.68-4.81-2.02l-20.4-20.78c-2.65-2.7-2.65-7.09,0-9.79l20.4-20.78c2.65-2.7,6.96-2.7,9.61,0s2.65,7.09,0,9.79l-15.58,15.88,15.58,15.88c2.65,2.7,2.65,7.09,0,9.79-1.32,1.36-3.06,2.04-4.8,2.04Z"></path>
<path class="cls-2" d="M328.07,257.52c-1.81,0-3.63-.73-4.96-2.19-2.57-2.78-2.43-7.18.31-9.79,9.91-9.48,16.47-23.22,17.53-36.75.29-3.62,3.24-6.39,6.79-6.39.82,0,1.26-.14,1.84-.4,1.05-.48,1.75-1.44,1.89-2.49l2.52-20.49c.15-1.26-.42-2.13-.78-2.56-.35-.42-1.14-1.12-2.42-1.14-1.85-.03-3.62-.82-4.87-2.17-1.26-1.37-1.93-3.2-1.85-5.08l1.22-25.63c.08-1.72.79-3.34,1.99-4.56l5.02-5.13c2.84-3.08,5.1-7.63-.87-16.9-5.22-8.12-14.7-12.23-28.19-12.23-5.7,0-13.24.33-21.01,3.02-3.54,1.22-7.41-.71-8.62-4.34-1.2-3.63.71-7.55,4.26-8.78,9.65-3.34,18.63-3.75,25.37-3.75,18.37,0,31.67,6.22,39.56,18.49,10.46,16.25,5.37,27.53-.75,34.13l-3.3,3.38-.84,17.33c2.09,1,3.98,2.44,5.53,4.24,3.14,3.68,4.61,8.56,4.01,13.4l-2.52,20.49c-.71,5.82-4.31,10.81-9.65,13.34-.48.22-.94.42-1.41.6-2.43,15.13-10.12,29.96-21.16,40.51-1.28,1.23-2.95,1.86-4.62,1.86Z"></path>
<path class="cls-2" d="M99.62,339.09c-3.75,0-6.8-3.1-6.8-6.93,0-27.29,18.14-50.97,44.14-57.57l37.46-9.53,3.01-12.25c-9.31-10.1-15.81-23.47-18.09-37.17-6.45-1.79-11.42-7.4-12.28-14.44l-2.53-20.48c-.6-4.89.9-9.81,4.09-13.49,1.7-1.98,3.82-3.49,6.16-4.49-.72-6.34-1.66-15.58-1.66-19.99,0-19.35,5.72-41.6,49.86-42.72,15.32-10.28,31.56-10.28,38.65-10.28,18.37,0,31.67,6.22,39.56,18.49,10.46,16.25,5.37,27.53-.75,34.13l-3.3,3.38-.84,17.33c2.09,1,3.98,2.44,5.53,4.24,3.14,3.68,4.61,8.56,4.01,13.4l-2.52,20.49c-.8,6.58-5.22,11.9-11.07,14.05-2.28,14.27-9.14,28.14-19.06,38.47l2.77,11.3,22.68,5.76c3.64.93,5.86,4.7,4.95,8.4-.91,3.73-4.61,5.93-8.24,5.04l-26.64-6.77c-2.43-.62-4.34-2.56-4.95-5.04l-4.72-19.24c-.61-2.49.18-5.11,2.05-6.83,10.33-9.45,17.15-23.5,18.25-37.58.29-3.62,3.24-6.39,6.79-6.39,2.13,0,3.51-1.25,3.71-2.9l2.52-20.49c.15-1.26-.42-2.13-.78-2.56-.35-.42-1.14-1.12-2.42-1.14-1.85-.03-3.62-.82-4.87-2.17-1.26-1.37-1.93-3.2-1.85-5.08l1.22-25.63c.08-1.72.79-3.34,1.99-4.56l5.02-5.13c2.84-3.08,5.1-7.63-.87-16.9-5.21-8.1-14.69-12.22-28.17-12.22-10.01,0-21.72,1.07-32.54,8.95-1.13.83-2.49,1.27-3.88,1.29-38.5.37-38.5,16.21-38.5,28.91,0,4.9,1.69,19.52,2.33,24.73.24,1.98-.35,3.95-1.65,5.46-1.29,1.48-3.15,2.34-5.11,2.34-2.31,0-3.11.71-3.48,1.12s-.94,1.32-.79,2.59l2.52,20.49c.2,1.66,1.59,2.91,3.22,2.91h1.63c3.55,0,6.5,2.77,6.79,6.37,1.07,13.67,7.59,27.46,17.42,36.86,1.79,1.72,2.54,4.29,1.94,6.72l-4.92,20.07c-.6,2.49-2.52,4.42-4.95,5.04l-41.42,10.56c-19.92,5.07-33.83,23.22-33.83,44.14,0,3.82-3.05,6.93-6.8,6.93Z"></path>
</g>
</svg>
